<?xml version="1.0" encoding="UTF-8"?>
<svg xmlns="http://www.w3.org/2000/svg" xmlns:xlink="http://www.w3.org/1999/xlink" width="20px" height="20px" viewBox="0 0 20 20" version="1.1">
<g id="surface1">
<path style=" stroke:none;fill-rule:nonzero;fill:rgb(0%,0%,0%);fill-opacity:1;" d="M 0.734375 1.191406 C 0.773438 1.191406 0.8125 1.191406 0.851562 1.191406 C 0.976562 1.191406 1.105469 1.191406 1.230469 1.191406 C 1.320312 1.1875 1.40625 1.1875 1.496094 1.1875 C 1.679688 1.1875 1.867188 1.1875 2.050781 1.1875 C 2.289062 1.1875 2.523438 1.183594 2.761719 1.183594 C 2.945312 1.179688 3.125 1.179688 3.308594 1.179688 C 3.394531 1.179688 3.484375 1.179688 3.570312 1.179688 C 3.691406 1.175781 3.816406 1.175781 3.9375 1.179688 C 3.972656 1.175781 4.007812 1.175781 4.046875 1.175781 C 4.289062 1.179688 4.414062 1.246094 4.585938 1.410156 C 4.6875 1.53125 4.71875 1.644531 4.75 1.792969 C 4.753906 1.824219 4.761719 1.855469 4.769531 1.886719 C 4.785156 1.957031 4.800781 2.027344 4.816406 2.097656 C 4.84375 2.222656 4.871094 2.34375 4.898438 2.464844 C 4.953125 2.71875 5.011719 2.96875 5.0625 3.222656 C 5.078125 3.292969 5.078125 3.292969 5.09375 3.363281 C 5.117188 3.476562 5.117188 3.476562 5.117188 3.554688 C 5.148438 3.554688 5.179688 3.554688 5.210938 3.554688 C 7.019531 3.550781 8.832031 3.550781 10.644531 3.546875 C 10.859375 3.546875 11.078125 3.546875 11.296875 3.546875 C 11.339844 3.546875 11.382812 3.546875 11.425781 3.546875 C 12.128906 3.546875 12.828125 3.546875 13.53125 3.546875 C 14.25 3.542969 14.96875 3.542969 15.6875 3.542969 C 16.132812 3.542969 16.578125 3.542969 17.019531 3.542969 C 17.324219 3.542969 17.628906 3.542969 17.933594 3.542969 C 18.109375 3.542969 18.285156 3.542969 18.460938 3.539062 C 18.621094 3.539062 18.78125 3.539062 18.941406 3.539062 C 19 3.539062 19.058594 3.539062 19.117188 3.539062 C 19.195312 3.539062 19.273438 3.539062 19.355469 3.539062 C 19.421875 3.539062 19.421875 3.539062 19.488281 3.539062 C 19.675781 3.5625 19.804688 3.632812 19.9375 3.765625 C 20.136719 4.207031 19.917969 4.726562 19.789062 5.164062 C 19.769531 5.242188 19.746094 5.320312 19.722656 5.398438 C 19.660156 5.613281 19.601562 5.824219 19.539062 6.039062 C 19.472656 6.261719 19.410156 6.484375 19.347656 6.707031 C 19.238281 7.082031 19.128906 7.457031 19.023438 7.832031 C 18.882812 8.3125 18.746094 8.796875 18.605469 9.277344 C 18.488281 9.691406 18.367188 10.105469 18.25 10.519531 C 18.210938 10.652344 18.171875 10.785156 18.132812 10.917969 C 18.074219 11.125 18.015625 11.335938 17.953125 11.542969 C 17.933594 11.621094 17.910156 11.695312 17.886719 11.773438 C 17.859375 11.878906 17.828125 11.980469 17.796875 12.085938 C 17.789062 12.117188 17.78125 12.148438 17.769531 12.179688 C 17.617188 12.707031 17.617188 12.707031 17.386719 12.886719 C 17.222656 12.972656 17.046875 12.960938 16.863281 12.957031 C 16.796875 12.957031 16.796875 12.957031 16.726562 12.960938 C 16.578125 12.960938 16.429688 12.960938 16.28125 12.957031 C 16.175781 12.957031 16.070312 12.957031 15.964844 12.957031 C 15.734375 12.960938 15.503906 12.957031 15.277344 12.957031 C 14.945312 12.957031 14.613281 12.957031 14.28125 12.957031 C 13.742188 12.957031 13.203125 12.957031 12.664062 12.957031 C 12.632812 12.957031 12.597656 12.957031 12.566406 12.957031 C 12.519531 12.957031 12.519531 12.957031 12.46875 12.957031 C 12.011719 12.957031 11.554688 12.957031 11.097656 12.957031 C 11.046875 12.957031 11.046875 12.957031 11 12.957031 C 10.460938 12.957031 9.925781 12.957031 9.390625 12.957031 C 9.058594 12.957031 8.726562 12.957031 8.394531 12.957031 C 8.167969 12.957031 7.941406 12.957031 7.714844 12.957031 C 7.585938 12.957031 7.453125 12.957031 7.324219 12.953125 C 7.183594 12.953125 7.039062 12.953125 6.898438 12.953125 C 6.855469 12.953125 6.816406 12.953125 6.773438 12.953125 C 6.484375 12.957031 6.207031 12.972656 5.992188 13.1875 C 5.902344 13.402344 5.894531 13.609375 5.984375 13.824219 C 6.117188 13.976562 6.25 14.03125 6.445312 14.0625 C 6.507812 14.066406 6.574219 14.066406 6.636719 14.066406 C 6.675781 14.066406 6.714844 14.066406 6.753906 14.066406 C 6.796875 14.066406 6.835938 14.066406 6.878906 14.066406 C 6.925781 14.066406 6.96875 14.066406 7.015625 14.066406 C 7.164062 14.066406 7.3125 14.066406 7.460938 14.066406 C 7.566406 14.066406 7.675781 14.066406 7.78125 14.070312 C 8.011719 14.070312 8.238281 14.070312 8.46875 14.070312 C 8.832031 14.070312 9.195312 14.070312 9.558594 14.070312 C 9.683594 14.070312 9.808594 14.070312 9.933594 14.070312 C 9.964844 14.070312 9.996094 14.070312 10.027344 14.070312 C 10.378906 14.074219 10.734375 14.074219 11.085938 14.074219 C 11.117188 14.074219 11.152344 14.074219 11.183594 14.074219 C 11.707031 14.074219 12.230469 14.074219 12.753906 14.074219 C 13.292969 14.074219 13.832031 14.078125 14.367188 14.078125 C 14.699219 14.078125 15.03125 14.078125 15.363281 14.078125 C 15.589844 14.078125 15.820312 14.078125 16.046875 14.082031 C 16.175781 14.082031 16.308594 14.082031 16.4375 14.082031 C 16.582031 14.082031 16.722656 14.082031 16.867188 14.082031 C 16.90625 14.082031 16.949219 14.082031 16.992188 14.082031 C 17.226562 14.082031 17.359375 14.101562 17.539062 14.257812 C 17.699219 14.460938 17.6875 14.675781 17.65625 14.921875 C 17.570312 15.101562 17.480469 15.183594 17.304688 15.273438 C 17.199219 15.289062 17.199219 15.289062 17.089844 15.292969 C 17.027344 15.296875 17.027344 15.296875 16.96875 15.296875 C 16.925781 15.296875 16.886719 15.300781 16.84375 15.300781 C 16.800781 15.300781 16.757812 15.304688 16.714844 15.304688 C 16.613281 15.308594 16.507812 15.308594 16.40625 15.3125 C 16.441406 15.328125 16.441406 15.328125 16.476562 15.34375 C 17.058594 15.597656 17.378906 15.925781 17.621094 16.511719 C 17.734375 16.929688 17.714844 17.472656 17.5 17.851562 C 17.261719 18.246094 16.953125 18.535156 16.523438 18.710938 C 16.488281 18.726562 16.457031 18.738281 16.421875 18.753906 C 16.003906 18.867188 15.457031 18.847656 15.078125 18.632812 C 14.683594 18.394531 14.394531 18.085938 14.21875 17.65625 C 14.203125 17.621094 14.191406 17.589844 14.175781 17.554688 C 14.0625 17.136719 14.082031 16.589844 14.296875 16.210938 C 14.558594 15.777344 14.90625 15.472656 15.390625 15.3125 C 12.992188 15.3125 10.59375 15.3125 8.125 15.3125 C 8.242188 15.363281 8.355469 15.414062 8.476562 15.46875 C 8.921875 15.710938 9.152344 16.054688 9.339844 16.511719 C 9.453125 16.929688 9.433594 17.472656 9.21875 17.851562 C 8.980469 18.246094 8.671875 18.535156 8.242188 18.710938 C 8.207031 18.726562 8.175781 18.738281 8.140625 18.753906 C 7.722656 18.867188 7.175781 18.847656 6.796875 18.632812 C 6.402344 18.394531 6.113281 18.085938 5.9375 17.65625 C 5.921875 17.621094 5.910156 17.589844 5.894531 17.554688 C 5.78125 17.136719 5.800781 16.589844 6.015625 16.210938 C 6.277344 15.777344 6.625 15.472656 7.109375 15.3125 C 7.078125 15.3125 7.050781 15.3125 7.019531 15.3125 C 6.882812 15.308594 6.746094 15.304688 6.609375 15.304688 C 6.5625 15.300781 6.515625 15.300781 6.46875 15.300781 C 5.957031 15.289062 5.578125 15.140625 5.195312 14.804688 C 5.011719 14.609375 4.867188 14.390625 4.765625 14.140625 C 4.75 14.105469 4.738281 14.070312 4.722656 14.035156 C 4.601562 13.597656 4.652344 13.066406 4.859375 12.664062 C 5.050781 12.34375 5.296875 12.09375 5.625 11.914062 C 5.652344 11.914062 5.675781 11.914062 5.703125 11.914062 C 5.609375 11.480469 5.511719 11.046875 5.417969 10.613281 C 5.402344 10.535156 5.386719 10.460938 5.367188 10.386719 C 5.125 9.269531 4.875 8.15625 4.628906 7.042969 C 4.582031 6.84375 4.539062 6.644531 4.496094 6.449219 C 4.464844 6.316406 4.433594 6.183594 4.40625 6.050781 C 4.398438 6.019531 4.390625 5.984375 4.382812 5.953125 C 4.296875 5.554688 4.207031 5.160156 4.117188 4.761719 C 4.058594 4.511719 4.003906 4.257812 3.949219 4.003906 C 3.914062 3.855469 3.882812 3.710938 3.847656 3.5625 C 3.816406 3.425781 3.785156 3.289062 3.753906 3.152344 C 3.738281 3.078125 3.722656 3.003906 3.707031 2.929688 C 3.695312 2.886719 3.6875 2.84375 3.675781 2.796875 C 3.667969 2.757812 3.660156 2.722656 3.652344 2.683594 C 3.632812 2.582031 3.628906 2.484375 3.632812 2.382812 C 3.570312 2.382812 3.570312 2.382812 3.511719 2.382812 C 3.128906 2.386719 2.746094 2.390625 2.363281 2.390625 C 2.164062 2.390625 1.96875 2.394531 1.769531 2.394531 C 1.582031 2.394531 1.390625 2.398438 1.203125 2.398438 C 1.128906 2.398438 1.054688 2.398438 0.984375 2.398438 C 0.882812 2.402344 0.78125 2.402344 0.679688 2.402344 C 0.632812 2.402344 0.632812 2.402344 0.589844 2.402344 C 0.386719 2.402344 0.273438 2.355469 0.117188 2.226562 C -0.0429688 2.023438 -0.03125 1.808594 0 1.5625 C 0.160156 1.222656 0.394531 1.195312 0.734375 1.191406 Z M 5.390625 4.726562 C 5.414062 4.953125 5.441406 5.15625 5.492188 5.375 C 5.496094 5.402344 5.503906 5.429688 5.507812 5.457031 C 5.53125 5.546875 5.550781 5.640625 5.570312 5.730469 C 5.585938 5.796875 5.601562 5.863281 5.613281 5.933594 C 5.65625 6.109375 5.695312 6.289062 5.734375 6.46875 C 5.773438 6.636719 5.808594 6.800781 5.847656 6.96875 C 5.957031 7.460938 6.066406 7.949219 6.175781 8.441406 C 6.417969 9.535156 6.664062 10.628906 6.914062 11.757812 C 10.109375 11.757812 13.308594 11.757812 16.601562 11.757812 C 16.675781 11.554688 16.746094 11.363281 16.804688 11.160156 C 16.8125 11.132812 16.820312 11.105469 16.828125 11.078125 C 16.851562 10.988281 16.878906 10.898438 16.902344 10.808594 C 16.921875 10.746094 16.941406 10.679688 16.960938 10.617188 C 17.007812 10.441406 17.058594 10.269531 17.109375 10.09375 C 17.152344 9.949219 17.191406 9.800781 17.234375 9.65625 C 17.332031 9.3125 17.429688 8.96875 17.527344 8.625 C 17.628906 8.273438 17.730469 7.917969 17.832031 7.5625 C 17.921875 7.257812 18.007812 6.953125 18.09375 6.648438 C 18.144531 6.46875 18.199219 6.285156 18.25 6.105469 C 18.300781 5.933594 18.347656 5.765625 18.394531 5.59375 C 18.414062 5.53125 18.433594 5.46875 18.449219 5.40625 C 18.476562 5.320312 18.5 5.234375 18.523438 5.148438 C 18.535156 5.101562 18.550781 5.054688 18.566406 5.003906 C 18.601562 4.878906 18.601562 4.878906 18.59375 4.726562 C 14.238281 4.726562 9.878906 4.726562 5.390625 4.726562 Z M 7.113281 16.722656 C 7.046875 16.890625 7.042969 17.046875 7.070312 17.226562 C 7.15625 17.398438 7.242188 17.507812 7.421875 17.578125 C 7.617188 17.605469 7.765625 17.601562 7.945312 17.511719 C 8.078125 17.394531 8.152344 17.316406 8.175781 17.136719 C 8.1875 16.914062 8.164062 16.773438 8.007812 16.601562 C 7.859375 16.46875 7.710938 16.464844 7.515625 16.46875 C 7.335938 16.496094 7.230469 16.589844 7.113281 16.722656 Z M 15.394531 16.722656 C 15.328125 16.890625 15.324219 17.046875 15.351562 17.226562 C 15.4375 17.398438 15.523438 17.507812 15.703125 17.578125 C 15.898438 17.605469 16.046875 17.601562 16.226562 17.511719 C 16.359375 17.394531 16.433594 17.316406 16.457031 17.136719 C 16.46875 16.914062 16.445312 16.773438 16.289062 16.601562 C 16.140625 16.46875 15.992188 16.464844 15.796875 16.46875 C 15.617188 16.496094 15.511719 16.589844 15.394531 16.722656 Z M 15.394531 16.722656 "/>
</g>
</svg>
