<?xml version="1.0" encoding="UTF-8"?>
<svg xmlns="http://www.w3.org/2000/svg" xmlns:xlink="http://www.w3.org/1999/xlink" width="20px" height="20px" viewBox="0 0 20 20" version="1.1">
<g id="surface1">
<path style=" stroke:none;fill-rule:nonzero;fill:rgb(0%,0%,0%);fill-opacity:1;" d="M 7.109375 1.367188 C 7.140625 1.375 7.167969 1.382812 7.199219 1.390625 C 8.285156 1.664062 9.136719 2.222656 9.960938 2.96875 C 10.09375 2.910156 10.183594 2.835938 10.285156 2.738281 C 11.59375 1.546875 13.15625 1.191406 14.882812 1.25 C 15.113281 1.265625 15.324219 1.308594 15.546875 1.367188 C 15.589844 1.378906 15.589844 1.378906 15.636719 1.390625 C 16.550781 1.621094 17.394531 2.046875 18.082031 2.695312 C 18.152344 2.761719 18.226562 2.824219 18.304688 2.886719 C 18.492188 3.046875 18.636719 3.242188 18.789062 3.4375 C 18.820312 3.476562 18.851562 3.519531 18.882812 3.5625 C 19.816406 4.792969 20.148438 6.316406 19.984375 7.839844 C 19.867188 8.628906 19.601562 9.363281 19.257812 10.078125 C 19.242188 10.105469 19.230469 10.136719 19.214844 10.167969 C 18.667969 11.292969 17.882812 12.300781 17.042969 13.222656 C 16.96875 13.300781 16.898438 13.382812 16.828125 13.464844 C 16.691406 13.621094 16.546875 13.769531 16.398438 13.917969 C 16.375 13.945312 16.347656 13.96875 16.320312 13.996094 C 16.265625 14.050781 16.214844 14.105469 16.160156 14.160156 C 16.078125 14.242188 15.996094 14.324219 15.914062 14.40625 C 15.859375 14.457031 15.808594 14.511719 15.753906 14.5625 C 15.730469 14.585938 15.707031 14.613281 15.683594 14.636719 C 15.535156 14.78125 15.382812 14.921875 15.222656 15.058594 C 15.136719 15.132812 15.054688 15.210938 14.96875 15.289062 C 14.800781 15.441406 14.625 15.585938 14.449219 15.726562 C 14.347656 15.808594 14.25 15.894531 14.152344 15.976562 C 13.90625 16.1875 13.65625 16.386719 13.398438 16.582031 C 13.308594 16.648438 13.21875 16.71875 13.132812 16.785156 C 12.71875 17.105469 12.304688 17.410156 11.871094 17.699219 C 11.761719 17.769531 11.652344 17.84375 11.542969 17.917969 C 11.4375 17.988281 11.332031 18.058594 11.226562 18.132812 C 11.175781 18.164062 11.121094 18.199219 11.070312 18.234375 C 10.261719 18.777344 10.261719 18.777344 10.023438 18.773438 C 9.988281 18.773438 9.957031 18.777344 9.925781 18.777344 C 9.546875 18.695312 9.222656 18.4375 8.910156 18.226562 C 8.863281 18.195312 8.816406 18.164062 8.769531 18.128906 C 7.914062 17.554688 7.070312 16.960938 6.273438 16.300781 C 6.195312 16.234375 6.109375 16.171875 6.027344 16.109375 C 5.820312 15.949219 5.621094 15.777344 5.417969 15.605469 C 5.351562 15.546875 5.285156 15.492188 5.222656 15.4375 C 4.65625 14.960938 4.128906 14.445312 3.609375 13.925781 C 3.585938 13.902344 3.5625 13.882812 3.542969 13.859375 C 3.304688 13.621094 3.070312 13.382812 2.851562 13.125 C 2.816406 13.082031 2.777344 13.039062 2.738281 13 C 2.433594 12.648438 2.152344 12.285156 1.875 11.914062 C 1.855469 11.890625 1.839844 11.867188 1.820312 11.84375 C 0.589844 10.1875 -0.273438 8.175781 0.03125 6.078125 C 0.0546875 5.949219 0.0820312 5.828125 0.117188 5.703125 C 0.125 5.671875 0.132812 5.644531 0.140625 5.613281 C 0.320312 4.90625 0.613281 4.21875 1.054688 3.632812 C 1.089844 3.585938 1.089844 3.585938 1.128906 3.535156 C 1.453125 3.117188 1.800781 2.738281 2.226562 2.421875 C 2.28125 2.378906 2.28125 2.378906 2.339844 2.335938 C 3.667969 1.375 5.503906 0.9375 7.109375 1.367188 Z M 11.289062 3.59375 C 11.257812 3.621094 11.226562 3.644531 11.195312 3.671875 C 10.972656 3.859375 10.792969 4.066406 10.621094 4.300781 C 10.476562 4.5 10.328125 4.625 10.082031 4.683594 C 9.90625 4.699219 9.761719 4.664062 9.609375 4.570312 C 9.507812 4.476562 9.421875 4.367188 9.335938 4.257812 C 9.144531 4.007812 8.957031 3.789062 8.710938 3.59375 C 8.675781 3.5625 8.636719 3.53125 8.601562 3.5 C 7.617188 2.695312 6.382812 2.441406 5.136719 2.546875 C 4.96875 2.570312 4.808594 2.609375 4.648438 2.65625 C 4.601562 2.667969 4.554688 2.683594 4.503906 2.695312 C 3.339844 3.054688 2.363281 3.832031 1.789062 4.914062 C 1.445312 5.582031 1.273438 6.257812 1.273438 7.011719 C 1.273438 7.039062 1.273438 7.0625 1.273438 7.089844 C 1.277344 7.53125 1.316406 7.9375 1.445312 8.359375 C 1.457031 8.40625 1.457031 8.40625 1.472656 8.453125 C 1.796875 9.53125 2.398438 10.484375 3.085938 11.367188 C 3.113281 11.402344 3.140625 11.4375 3.167969 11.472656 C 3.683594 12.125 4.25 12.726562 4.835938 13.316406 C 4.867188 13.347656 4.867188 13.347656 4.898438 13.378906 C 5.132812 13.617188 5.371094 13.847656 5.625 14.0625 C 5.6875 14.121094 5.75 14.175781 5.8125 14.234375 C 5.980469 14.386719 6.15625 14.53125 6.332031 14.671875 C 6.433594 14.753906 6.53125 14.839844 6.628906 14.921875 C 6.875 15.132812 7.128906 15.335938 7.386719 15.527344 C 7.441406 15.570312 7.496094 15.609375 7.546875 15.652344 C 7.960938 15.964844 8.378906 16.277344 8.804688 16.570312 C 8.882812 16.625 8.957031 16.675781 9.035156 16.730469 C 9.152344 16.8125 9.273438 16.894531 9.390625 16.976562 C 9.4375 17.011719 9.484375 17.042969 9.535156 17.074219 C 9.601562 17.121094 9.667969 17.167969 9.734375 17.214844 C 9.773438 17.242188 9.8125 17.269531 9.851562 17.296875 C 9.957031 17.355469 9.957031 17.355469 10.058594 17.320312 C 10.164062 17.261719 10.261719 17.199219 10.359375 17.136719 C 10.398438 17.109375 10.4375 17.082031 10.480469 17.054688 C 10.519531 17.027344 10.5625 17 10.601562 16.972656 C 10.644531 16.945312 10.6875 16.914062 10.730469 16.886719 C 11.015625 16.695312 11.292969 16.503906 11.570312 16.300781 C 11.652344 16.242188 11.734375 16.179688 11.816406 16.121094 C 12.160156 15.871094 12.5 15.613281 12.828125 15.347656 C 12.945312 15.25 13.066406 15.160156 13.183594 15.066406 C 13.402344 14.898438 13.609375 14.726562 13.8125 14.539062 C 13.914062 14.445312 14.019531 14.359375 14.125 14.273438 C 14.28125 14.148438 14.425781 14.015625 14.566406 13.871094 C 14.636719 13.800781 14.707031 13.738281 14.785156 13.671875 C 14.992188 13.492188 15.191406 13.292969 15.386719 13.09375 C 15.453125 13.03125 15.515625 12.964844 15.582031 12.898438 C 15.800781 12.683594 16.011719 12.460938 16.210938 12.226562 C 16.25 12.179688 16.292969 12.136719 16.332031 12.089844 C 17.324219 10.96875 18.203125 9.660156 18.59375 8.203125 C 18.605469 8.15625 18.621094 8.105469 18.632812 8.058594 C 18.804688 7.316406 18.789062 6.46875 18.554688 5.742188 C 18.546875 5.714844 18.539062 5.691406 18.53125 5.664062 C 18.347656 5.085938 18.054688 4.558594 17.65625 4.101562 C 17.628906 4.070312 17.605469 4.039062 17.578125 4.007812 C 16.828125 3.125 15.691406 2.609375 14.550781 2.511719 C 13.371094 2.433594 12.183594 2.820312 11.289062 3.59375 Z M 11.289062 3.59375 "/>
</g>
</svg>
