<?xml version="1.0" encoding="UTF-8"?>
<svg xmlns="http://www.w3.org/2000/svg" xmlns:xlink="http://www.w3.org/1999/xlink" width="20px" height="20px" viewBox="0 0 20 20" version="1.1">
<g id="surface1">
<path style=" stroke:none;fill-rule:nonzero;fill:rgb(0%,0%,0%);fill-opacity:1;" d="M 11 0.257812 C 11.367188 0.527344 11.667969 0.910156 11.757812 1.367188 C 11.761719 1.460938 11.765625 1.554688 11.769531 1.648438 C 11.769531 1.675781 11.773438 1.699219 11.773438 1.726562 C 11.773438 1.8125 11.777344 1.898438 11.78125 1.984375 C 11.78125 2.039062 11.78125 2.097656 11.785156 2.15625 C 11.789062 2.296875 11.792969 2.4375 11.796875 2.578125 C 11.835938 2.589844 11.875 2.601562 11.917969 2.617188 C 12.773438 2.894531 13.515625 3.34375 14.160156 3.96875 C 14.21875 4.023438 14.277344 4.078125 14.335938 4.132812 C 15.359375 5.105469 16.027344 6.5625 16.066406 7.976562 C 16.066406 8.078125 16.070312 8.179688 16.070312 8.28125 C 16.070312 8.335938 16.070312 8.390625 16.070312 8.445312 C 16.074219 8.589844 16.074219 8.734375 16.074219 8.878906 C 16.070312 10.25 16.070312 10.25 16.199219 11.617188 C 16.207031 11.660156 16.210938 11.703125 16.21875 11.75 C 16.519531 13.601562 17.378906 15.171875 18.59375 16.574219 C 18.78125 16.792969 18.804688 16.902344 18.800781 17.1875 C 18.785156 17.34375 18.738281 17.425781 18.632812 17.539062 C 18.484375 17.644531 18.382812 17.671875 18.203125 17.671875 C 18.15625 17.671875 18.109375 17.671875 18.0625 17.671875 C 18.011719 17.671875 17.957031 17.671875 17.90625 17.667969 C 17.851562 17.667969 17.796875 17.667969 17.742188 17.667969 C 17.59375 17.667969 17.445312 17.667969 17.296875 17.667969 C 17.144531 17.667969 16.988281 17.667969 16.832031 17.667969 C 16.539062 17.667969 16.246094 17.664062 15.953125 17.664062 C 15.617188 17.664062 15.285156 17.664062 14.949219 17.664062 C 14.265625 17.660156 13.578125 17.660156 12.890625 17.65625 C 12.882812 17.6875 12.875 17.71875 12.867188 17.753906 C 12.855469 17.796875 12.847656 17.835938 12.835938 17.882812 C 12.824219 17.921875 12.816406 17.964844 12.804688 18.007812 C 12.703125 18.386719 12.488281 18.734375 12.226562 19.023438 C 12.199219 19.054688 12.167969 19.085938 12.140625 19.121094 C 11.652344 19.640625 10.96875 19.984375 10.25 20.011719 C 9.40625 20.027344 8.628906 19.863281 8.007812 19.261719 C 7.953125 19.207031 7.902344 19.15625 7.851562 19.101562 C 7.824219 19.074219 7.800781 19.050781 7.773438 19.023438 C 7.457031 18.691406 7.109375 18.125 7.109375 17.65625 C 7.082031 17.65625 7.050781 17.65625 7.023438 17.65625 C 6.332031 17.660156 5.640625 17.664062 4.953125 17.664062 C 4.617188 17.664062 4.285156 17.667969 3.949219 17.667969 C 3.660156 17.667969 3.367188 17.671875 3.078125 17.671875 C 2.921875 17.671875 2.769531 17.671875 2.613281 17.671875 C 2.46875 17.675781 2.324219 17.675781 2.179688 17.675781 C 2.101562 17.675781 2.023438 17.675781 1.945312 17.675781 C 1.511719 17.671875 1.511719 17.671875 1.328125 17.5 C 1.191406 17.324219 1.1875 17.171875 1.191406 16.953125 C 1.222656 16.761719 1.3125 16.660156 1.445312 16.523438 C 1.746094 16.199219 2.011719 15.871094 2.265625 15.507812 C 2.308594 15.445312 2.308594 15.445312 2.355469 15.378906 C 3.519531 13.636719 3.894531 11.714844 3.914062 9.652344 C 3.914062 9.597656 3.914062 9.542969 3.917969 9.484375 C 3.917969 9.257812 3.921875 9.03125 3.921875 8.800781 C 3.929688 7.566406 3.929688 7.566406 4.0625 7.03125 C 4.070312 6.996094 4.078125 6.964844 4.085938 6.929688 C 4.332031 5.941406 4.8125 5.050781 5.507812 4.308594 C 5.5625 4.246094 5.613281 4.183594 5.664062 4.117188 C 5.78125 3.976562 5.914062 3.867188 6.054688 3.75 C 6.089844 3.71875 6.128906 3.691406 6.164062 3.660156 C 6.777344 3.171875 7.457031 2.816406 8.203125 2.578125 C 8.203125 2.542969 8.203125 2.511719 8.203125 2.476562 C 8.203125 2.347656 8.207031 2.21875 8.210938 2.089844 C 8.210938 2.035156 8.210938 1.976562 8.210938 1.921875 C 8.214844 1.332031 8.363281 0.875 8.773438 0.441406 C 9.367188 -0.121094 10.320312 -0.171875 11 0.257812 Z M 9.570312 1.367188 C 9.351562 1.664062 9.414062 1.972656 9.414062 2.34375 C 9.800781 2.34375 10.1875 2.34375 10.585938 2.34375 C 10.621094 1.820312 10.621094 1.820312 10.414062 1.375 C 10.230469 1.21875 10.132812 1.195312 9.902344 1.199219 C 9.757812 1.21875 9.675781 1.269531 9.570312 1.367188 Z M 6.4375 5.074219 C 5.40625 6.144531 5.117188 7.507812 5.109375 8.945312 C 5.109375 9.035156 5.109375 9.121094 5.105469 9.207031 C 5.105469 9.457031 5.101562 9.703125 5.101562 9.953125 C 5.097656 10.664062 5.085938 11.363281 4.960938 12.070312 C 4.953125 12.117188 4.945312 12.164062 4.9375 12.210938 C 4.917969 12.316406 4.894531 12.421875 4.871094 12.527344 C 4.859375 12.582031 4.859375 12.582031 4.84375 12.636719 C 4.554688 13.886719 4.042969 15.074219 3.320312 16.132812 C 3.242188 16.25 3.164062 16.363281 3.085938 16.484375 C 7.648438 16.484375 12.210938 16.484375 16.914062 16.484375 C 16.835938 16.367188 16.757812 16.253906 16.679688 16.132812 C 15.761719 14.746094 15.171875 13.21875 14.960938 11.5625 C 14.957031 11.535156 14.953125 11.511719 14.949219 11.484375 C 14.917969 11.203125 14.914062 10.925781 14.914062 10.644531 C 14.914062 10.554688 14.910156 10.464844 14.910156 10.378906 C 14.90625 10.128906 14.90625 9.878906 14.902344 9.625 C 14.886719 7.765625 14.703125 6.207031 13.324219 4.835938 C 11.363281 2.945312 8.292969 3.207031 6.4375 5.074219 Z M 8.359375 17.65625 C 8.609375 18.160156 8.8125 18.425781 9.296875 18.671875 C 9.324219 18.683594 9.347656 18.699219 9.375 18.710938 C 9.730469 18.859375 10.230469 18.847656 10.589844 18.726562 C 11.125 18.492188 11.375 18.1875 11.640625 17.65625 C 10.558594 17.65625 9.476562 17.65625 8.359375 17.65625 Z M 8.359375 17.65625 "/>
<path style=" stroke:none;fill-rule:nonzero;fill:rgb(0%,0%,0%);fill-opacity:1;" d="M 16.085938 2.039062 C 16.328125 2.175781 16.503906 2.40625 16.679688 2.617188 C 16.699219 2.640625 16.71875 2.664062 16.738281 2.6875 C 17.773438 3.925781 18.425781 5.367188 18.710938 6.953125 C 18.71875 7.003906 18.730469 7.050781 18.738281 7.101562 C 18.789062 7.445312 18.800781 7.785156 18.804688 8.128906 C 18.804688 8.175781 18.804688 8.222656 18.808594 8.269531 C 18.808594 8.683594 18.808594 8.683594 18.632812 8.867188 C 18.429688 9.027344 18.214844 9.015625 17.96875 8.984375 C 17.792969 8.902344 17.699219 8.808594 17.617188 8.632812 C 17.585938 8.476562 17.570312 8.328125 17.5625 8.167969 C 17.464844 6.339844 16.851562 4.652344 15.589844 3.304688 C 15.191406 2.875 15.191406 2.875 15.171875 2.597656 C 15.183594 2.402344 15.261719 2.253906 15.390625 2.109375 C 15.605469 1.957031 15.84375 1.945312 16.085938 2.039062 Z M 16.085938 2.039062 "/>
<path style=" stroke:none;fill-rule:nonzero;fill:rgb(0%,0%,0%);fill-opacity:1;" d="M 4.5 2.054688 C 4.660156 2.144531 4.75 2.246094 4.804688 2.421875 C 4.839844 2.613281 4.824219 2.761719 4.726562 2.933594 C 4.628906 3.074219 4.511719 3.1875 4.386719 3.304688 C 3.652344 4.066406 3.15625 5.027344 2.8125 6.015625 C 2.796875 6.058594 2.796875 6.058594 2.78125 6.101562 C 2.558594 6.753906 2.449219 7.449219 2.433594 8.140625 C 2.429688 8.390625 2.417969 8.625 2.25 8.824219 C 2.050781 8.988281 1.929688 9 1.679688 8.996094 C 1.523438 8.980469 1.441406 8.933594 1.328125 8.828125 C 1.230469 8.6875 1.195312 8.589844 1.195312 8.421875 C 1.195312 8.378906 1.191406 8.335938 1.191406 8.292969 C 1.191406 8.25 1.195312 8.207031 1.195312 8.160156 C 1.195312 8.113281 1.195312 8.066406 1.195312 8.019531 C 1.230469 5.960938 2.085938 3.933594 3.5 2.445312 C 3.566406 2.371094 3.632812 2.296875 3.695312 2.21875 C 3.910156 1.96875 4.203125 1.925781 4.5 2.054688 Z M 4.5 2.054688 "/>
</g>
</svg>
