<?xml version="1.0" encoding="UTF-8"?>
<svg xmlns="http://www.w3.org/2000/svg" xmlns:xlink="http://www.w3.org/1999/xlink" width="20px" height="20px" viewBox="0 0 20 20" version="1.1">
<g id="surface1">
<path style=" stroke:none;fill-rule:nonzero;fill:rgb(0%,0%,0%);fill-opacity:1;" d="M 11.210938 0.15625 C 11.253906 0.171875 11.253906 0.171875 11.292969 0.183594 C 12.203125 0.503906 13.050781 1.195312 13.476562 2.070312 C 13.710938 2.585938 13.875 3.097656 13.871094 3.667969 C 13.871094 3.695312 13.871094 3.722656 13.867188 3.75 C 13.867188 3.816406 13.867188 3.878906 13.867188 3.945312 C 13.890625 3.945312 13.917969 3.945312 13.945312 3.945312 C 14.207031 3.941406 14.46875 3.941406 14.730469 3.9375 C 14.832031 3.9375 14.929688 3.9375 15.027344 3.9375 C 15.167969 3.933594 15.308594 3.933594 15.449219 3.933594 C 15.515625 3.933594 15.515625 3.933594 15.582031 3.933594 C 16.054688 3.933594 16.363281 4.0625 16.699219 4.394531 C 17.039062 4.773438 17.074219 5.242188 17.113281 5.726562 C 17.117188 5.769531 17.121094 5.8125 17.125 5.859375 C 17.136719 6.003906 17.148438 6.152344 17.15625 6.296875 C 17.167969 6.402344 17.175781 6.507812 17.183594 6.613281 C 17.203125 6.867188 17.222656 7.125 17.246094 7.382812 C 17.261719 7.589844 17.277344 7.796875 17.292969 8.007812 C 17.339844 8.597656 17.390625 9.191406 17.4375 9.785156 C 17.441406 9.832031 17.441406 9.832031 17.445312 9.882812 C 17.445312 9.914062 17.449219 9.945312 17.449219 9.980469 C 17.492188 10.496094 17.53125 11.011719 17.574219 11.527344 C 17.617188 12.058594 17.660156 12.59375 17.703125 13.125 C 17.726562 13.421875 17.75 13.71875 17.773438 14.019531 C 17.792969 14.273438 17.8125 14.527344 17.832031 14.78125 C 17.84375 14.910156 17.855469 15.039062 17.863281 15.167969 C 17.90625 15.6875 17.9375 16.203125 17.9375 16.726562 C 17.9375 16.792969 17.9375 16.792969 17.941406 16.863281 C 17.9375 17.34375 17.839844 17.773438 17.617188 18.203125 C 17.59375 18.253906 17.59375 18.253906 17.570312 18.304688 C 17.414062 18.617188 17.199219 18.855469 16.953125 19.101562 C 16.921875 19.132812 16.894531 19.164062 16.863281 19.195312 C 16.296875 19.75 15.519531 20.007812 14.742188 20.003906 C 14.699219 20.007812 14.65625 20.007812 14.613281 20.007812 C 14.472656 20.007812 14.332031 20.007812 14.191406 20.007812 C 14.09375 20.007812 13.992188 20.007812 13.890625 20.007812 C 13.589844 20.007812 13.285156 20.007812 12.984375 20.007812 C 12.84375 20.007812 12.699219 20.007812 12.558594 20.011719 C 12.082031 20.011719 11.609375 20.011719 11.136719 20.011719 C 11.011719 20.011719 10.890625 20.011719 10.765625 20.011719 C 10.738281 20.011719 10.707031 20.011719 10.675781 20.011719 C 10.179688 20.011719 9.6875 20.011719 9.191406 20.015625 C 8.683594 20.015625 8.175781 20.015625 7.667969 20.015625 C 7.382812 20.015625 7.097656 20.015625 6.8125 20.019531 C 6.542969 20.019531 6.277344 20.019531 6.007812 20.019531 C 5.910156 20.019531 5.8125 20.019531 5.714844 20.019531 C 5.070312 20.023438 4.464844 20.007812 3.890625 19.691406 C 3.863281 19.679688 3.835938 19.664062 3.808594 19.652344 C 3.738281 19.613281 3.664062 19.570312 3.59375 19.53125 C 3.5625 19.511719 3.527344 19.496094 3.496094 19.476562 C 3.0625 19.214844 2.699219 18.800781 2.460938 18.359375 C 2.433594 18.3125 2.433594 18.3125 2.40625 18.265625 C 1.878906 17.277344 2.058594 16.09375 2.148438 15.019531 C 2.15625 14.914062 2.164062 14.804688 2.171875 14.699219 C 2.191406 14.445312 2.210938 14.1875 2.234375 13.933594 C 2.25 13.726562 2.265625 13.515625 2.28125 13.308594 C 2.285156 13.277344 2.289062 13.25 2.289062 13.21875 C 2.292969 13.15625 2.300781 13.097656 2.304688 13.035156 C 2.347656 12.472656 2.394531 11.90625 2.4375 11.339844 C 2.476562 10.855469 2.515625 10.371094 2.554688 9.886719 C 2.597656 9.324219 2.640625 8.757812 2.6875 8.195312 C 2.691406 8.132812 2.695312 8.074219 2.703125 8.015625 C 2.703125 7.984375 2.707031 7.953125 2.710938 7.925781 C 2.726562 7.714844 2.742188 7.507812 2.757812 7.300781 C 2.777344 7.046875 2.796875 6.792969 2.820312 6.542969 C 2.828125 6.414062 2.839844 6.285156 2.847656 6.15625 C 2.859375 6.015625 2.871094 5.875 2.882812 5.734375 C 2.886719 5.695312 2.890625 5.65625 2.890625 5.613281 C 2.941406 5.027344 3.078125 4.589844 3.511719 4.179688 C 3.839844 3.964844 4.171875 3.921875 4.558594 3.929688 C 4.601562 3.929688 4.648438 3.929688 4.695312 3.929688 C 4.839844 3.929688 4.980469 3.933594 5.125 3.9375 C 5.222656 3.9375 5.320312 3.9375 5.417969 3.9375 C 5.65625 3.9375 5.894531 3.941406 6.132812 3.945312 C 6.132812 3.886719 6.132812 3.886719 6.132812 3.828125 C 6.125 3.265625 6.21875 2.785156 6.445312 2.265625 C 6.460938 2.234375 6.472656 2.199219 6.488281 2.167969 C 6.785156 1.519531 7.289062 0.964844 7.890625 0.585938 C 7.914062 0.570312 7.9375 0.550781 7.964844 0.535156 C 8.867188 -0.0820312 10.195312 -0.199219 11.210938 0.15625 Z M 7.980469 2.101562 C 7.503906 2.652344 7.34375 3.222656 7.34375 3.945312 C 9.097656 3.945312 10.851562 3.945312 12.65625 3.945312 C 12.65625 3.128906 12.433594 2.523438 11.863281 1.9375 C 11.257812 1.363281 10.589844 1.191406 9.785156 1.203125 C 9.070312 1.222656 8.464844 1.589844 7.980469 2.101562 Z M 4.179688 5.234375 C 4.144531 5.339844 4.132812 5.421875 4.121094 5.53125 C 4.121094 5.570312 4.117188 5.605469 4.113281 5.644531 C 4.109375 5.6875 4.105469 5.726562 4.101562 5.769531 C 4.101562 5.8125 4.097656 5.855469 4.09375 5.902344 C 4.082031 6.050781 4.070312 6.195312 4.058594 6.34375 C 4.050781 6.449219 4.039062 6.554688 4.03125 6.660156 C 4.007812 6.945312 3.984375 7.230469 3.964844 7.515625 C 3.949219 7.695312 3.933594 7.875 3.921875 8.054688 C 3.878906 8.550781 3.839844 9.046875 3.800781 9.546875 C 3.796875 9.578125 3.796875 9.609375 3.792969 9.640625 C 3.789062 9.707031 3.785156 9.769531 3.777344 9.835938 C 3.777344 9.867188 3.773438 9.898438 3.769531 9.933594 C 3.769531 9.964844 3.765625 9.996094 3.761719 10.027344 C 3.722656 10.546875 3.679688 11.0625 3.636719 11.582031 C 3.59375 12.113281 3.554688 12.644531 3.511719 13.175781 C 3.488281 13.476562 3.464844 13.773438 3.4375 14.074219 C 3.417969 14.328125 3.398438 14.582031 3.378906 14.835938 C 3.367188 14.964844 3.359375 15.09375 3.347656 15.222656 C 3.308594 15.714844 3.273438 16.199219 3.273438 16.691406 C 3.273438 16.730469 3.273438 16.769531 3.273438 16.808594 C 3.273438 17.371094 3.488281 17.820312 3.875 18.234375 C 4.40625 18.734375 5.011719 18.835938 5.710938 18.832031 C 5.75 18.832031 5.789062 18.832031 5.828125 18.832031 C 5.953125 18.832031 6.082031 18.832031 6.207031 18.832031 C 6.300781 18.832031 6.390625 18.835938 6.484375 18.835938 C 6.730469 18.835938 6.980469 18.835938 7.226562 18.835938 C 7.410156 18.835938 7.589844 18.835938 7.769531 18.835938 C 8.257812 18.835938 8.746094 18.835938 9.234375 18.835938 C 9.261719 18.835938 9.289062 18.835938 9.316406 18.835938 C 9.34375 18.835938 9.371094 18.835938 9.402344 18.835938 C 9.847656 18.835938 10.296875 18.835938 10.746094 18.835938 C 11.207031 18.835938 11.667969 18.835938 12.128906 18.835938 C 12.386719 18.835938 12.648438 18.835938 12.90625 18.835938 C 13.148438 18.839844 13.390625 18.839844 13.636719 18.835938 C 13.722656 18.835938 13.8125 18.835938 13.902344 18.839844 C 14.695312 18.839844 15.429688 18.839844 16.054688 18.28125 C 16.078125 18.261719 16.105469 18.238281 16.128906 18.214844 C 16.460938 17.90625 16.695312 17.472656 16.726562 17.015625 C 16.726562 16.90625 16.726562 16.800781 16.726562 16.691406 C 16.726562 16.648438 16.726562 16.609375 16.726562 16.566406 C 16.722656 16.066406 16.683594 15.574219 16.640625 15.074219 C 16.632812 14.96875 16.625 14.863281 16.617188 14.757812 C 16.597656 14.5 16.578125 14.242188 16.554688 13.988281 C 16.539062 13.777344 16.523438 13.570312 16.507812 13.363281 C 16.503906 13.332031 16.5 13.300781 16.5 13.269531 C 16.496094 13.210938 16.488281 13.148438 16.484375 13.089844 C 16.441406 12.523438 16.394531 11.957031 16.351562 11.394531 C 16.308594 10.875 16.269531 10.359375 16.226562 9.839844 C 16.1875 9.308594 16.144531 8.777344 16.101562 8.242188 C 16.078125 7.945312 16.054688 7.644531 16.03125 7.347656 C 16.011719 7.09375 15.992188 6.839844 15.96875 6.585938 C 15.960938 6.457031 15.949219 6.328125 15.941406 6.199219 C 15.929688 6.058594 15.917969 5.917969 15.90625 5.78125 C 15.902344 5.738281 15.898438 5.699219 15.898438 5.65625 C 15.875 5.386719 15.875 5.386719 15.742188 5.15625 C 15.632812 5.121094 15.566406 5.113281 15.449219 5.113281 C 15.414062 5.113281 15.378906 5.113281 15.34375 5.113281 C 15.285156 5.113281 15.285156 5.113281 15.230469 5.113281 C 15.191406 5.113281 15.152344 5.113281 15.109375 5.113281 C 14.988281 5.113281 14.863281 5.113281 14.738281 5.113281 C 14.65625 5.113281 14.570312 5.113281 14.484375 5.117188 C 14.28125 5.117188 14.074219 5.117188 13.867188 5.117188 C 13.867188 5.164062 13.867188 5.214844 13.867188 5.265625 C 13.863281 5.445312 13.859375 5.625 13.855469 5.808594 C 13.855469 5.886719 13.855469 5.964844 13.855469 6.042969 C 13.851562 6.15625 13.851562 6.265625 13.847656 6.378906 C 13.847656 6.414062 13.847656 6.449219 13.847656 6.484375 C 13.84375 6.714844 13.804688 6.84375 13.652344 7.023438 C 13.496094 7.152344 13.277344 7.125 13.085938 7.109375 C 12.921875 7.042969 12.828125 6.945312 12.734375 6.796875 C 12.640625 6.242188 12.671875 5.675781 12.65625 5.117188 C 10.902344 5.117188 9.148438 5.117188 7.34375 5.117188 C 7.332031 5.59375 7.316406 6.070312 7.304688 6.5625 C 7.214844 6.921875 7.214844 6.921875 7.03125 7.070312 C 6.828125 7.136719 6.605469 7.148438 6.410156 7.058594 C 6.21875 6.90625 6.21875 6.90625 6.171875 6.757812 C 6.167969 6.703125 6.164062 6.648438 6.164062 6.59375 C 6.164062 6.542969 6.164062 6.542969 6.160156 6.496094 C 6.160156 6.460938 6.160156 6.425781 6.160156 6.386719 C 6.160156 6.351562 6.15625 6.316406 6.15625 6.277344 C 6.15625 6.160156 6.152344 6.046875 6.148438 5.929688 C 6.148438 5.851562 6.148438 5.773438 6.144531 5.695312 C 6.140625 5.503906 6.136719 5.308594 6.132812 5.117188 C 5.886719 5.113281 5.640625 5.113281 5.390625 5.109375 C 5.308594 5.109375 5.226562 5.109375 5.140625 5.109375 C 5.019531 5.105469 4.898438 5.105469 4.777344 5.105469 C 4.742188 5.105469 4.703125 5.105469 4.664062 5.105469 C 4.402344 5.101562 4.402344 5.101562 4.179688 5.234375 Z M 4.179688 5.234375 "/>
<path style=" stroke:none;fill-rule:nonzero;fill:rgb(0%,0%,0%);fill-opacity:1;" d="M 12.652344 9.898438 C 12.777344 10.050781 12.824219 10.132812 12.824219 10.328125 C 12.824219 10.363281 12.824219 10.398438 12.828125 10.4375 C 12.792969 10.703125 12.574219 10.875 12.394531 11.054688 C 12.363281 11.085938 12.332031 11.113281 12.300781 11.148438 C 12.199219 11.25 12.101562 11.347656 12 11.449219 C 11.929688 11.519531 11.859375 11.589844 11.789062 11.660156 C 11.640625 11.808594 11.492188 11.957031 11.34375 12.105469 C 11.175781 12.273438 11.003906 12.445312 10.835938 12.617188 C 10.671875 12.78125 10.507812 12.945312 10.34375 13.109375 C 10.273438 13.179688 10.203125 13.25 10.132812 13.316406 C 10.039062 13.414062 9.941406 13.511719 9.84375 13.609375 C 9.8125 13.640625 9.785156 13.667969 9.753906 13.699219 C 9.726562 13.722656 9.703125 13.75 9.675781 13.777344 C 9.652344 13.800781 9.628906 13.824219 9.605469 13.847656 C 9.4375 13.980469 9.273438 14.003906 9.0625 13.984375 C 8.789062 13.871094 8.613281 13.710938 8.40625 13.503906 C 8.375 13.472656 8.34375 13.441406 8.3125 13.410156 C 8.246094 13.34375 8.179688 13.277344 8.117188 13.210938 C 8.015625 13.109375 7.914062 13.007812 7.8125 12.90625 C 7.75 12.839844 7.683594 12.777344 7.621094 12.710938 C 7.589844 12.683594 7.5625 12.652344 7.53125 12.621094 C 7.503906 12.59375 7.472656 12.566406 7.445312 12.535156 C 7.421875 12.511719 7.398438 12.484375 7.371094 12.460938 C 7.199219 12.261719 7.167969 12.117188 7.175781 11.859375 C 7.199219 11.65625 7.3125 11.535156 7.460938 11.40625 C 7.570312 11.371094 7.648438 11.359375 7.765625 11.355469 C 7.8125 11.351562 7.8125 11.351562 7.859375 11.351562 C 8.117188 11.390625 8.300781 11.566406 8.472656 11.742188 C 8.496094 11.765625 8.515625 11.785156 8.535156 11.804688 C 8.601562 11.871094 8.664062 11.9375 8.726562 12 C 8.773438 12.046875 8.816406 12.089844 8.859375 12.136719 C 8.964844 12.242188 9.074219 12.351562 9.179688 12.460938 C 9.359375 12.308594 9.53125 12.152344 9.695312 11.988281 C 9.730469 11.953125 9.730469 11.953125 9.765625 11.917969 C 9.8125 11.867188 9.863281 11.820312 9.910156 11.769531 C 9.988281 11.695312 10.0625 11.617188 10.140625 11.539062 C 10.359375 11.320312 10.578125 11.101562 10.796875 10.878906 C 10.929688 10.746094 11.0625 10.609375 11.199219 10.476562 C 11.25 10.425781 11.300781 10.375 11.351562 10.320312 C 11.421875 10.25 11.492188 10.179688 11.5625 10.109375 C 11.585938 10.085938 11.605469 10.066406 11.625 10.042969 C 11.929688 9.742188 12.292969 9.601562 12.652344 9.898438 Z M 12.652344 9.898438 "/>
</g>
</svg>
