<?xml version="1.0" encoding="UTF-8"?>
<svg xmlns="http://www.w3.org/2000/svg" xmlns:xlink="http://www.w3.org/1999/xlink" width="20px" height="20px" viewBox="0 0 20 20" version="1.1">
<g id="surface1">
<path style=" stroke:none;fill-rule:nonzero;fill:rgb(0%,0%,0%);fill-opacity:1;" d="M 7.800781 -0.0117188 C 7.851562 -0.0117188 7.851562 -0.0117188 7.90625 -0.0117188 C 8.402344 -0.0117188 8.886719 0.00390625 9.375 0.117188 C 9.40625 0.125 9.4375 0.128906 9.46875 0.136719 C 10.492188 0.355469 11.5 0.78125 12.34375 1.40625 C 12.382812 1.433594 12.421875 1.460938 12.460938 1.492188 C 13.976562 2.613281 15.015625 4.222656 15.460938 6.046875 C 15.46875 6.078125 15.476562 6.109375 15.484375 6.140625 C 15.609375 6.683594 15.640625 7.214844 15.640625 7.765625 C 15.640625 7.816406 15.640625 7.816406 15.640625 7.867188 C 15.636719 9.296875 15.285156 10.789062 14.457031 11.980469 C 14.402344 12.066406 14.402344 12.066406 14.4375 12.140625 C 14.511719 12.253906 14.601562 12.34375 14.695312 12.4375 C 14.714844 12.460938 14.738281 12.480469 14.757812 12.5 C 14.828125 12.570312 14.898438 12.640625 14.96875 12.710938 C 15.019531 12.761719 15.070312 12.8125 15.121094 12.859375 C 15.230469 12.96875 15.339844 13.078125 15.445312 13.183594 C 15.617188 13.355469 15.789062 13.527344 15.960938 13.699219 C 16.449219 14.183594 16.941406 14.671875 17.429688 15.15625 C 17.699219 15.425781 17.96875 15.691406 18.238281 15.960938 C 18.410156 16.132812 18.578125 16.300781 18.75 16.46875 C 18.859375 16.574219 18.964844 16.683594 19.070312 16.789062 C 19.121094 16.835938 19.167969 16.886719 19.21875 16.933594 C 19.628906 17.339844 20.003906 17.734375 20.011719 18.34375 C 20.007812 18.855469 19.917969 19.171875 19.570312 19.570312 C 19.472656 19.660156 19.371094 19.734375 19.257812 19.804688 C 19.207031 19.839844 19.207031 19.839844 19.15625 19.875 C 18.796875 20.058594 18.28125 20.070312 17.894531 19.960938 C 17.453125 19.765625 17.117188 19.398438 16.78125 19.0625 C 16.730469 19.011719 16.679688 18.960938 16.628906 18.910156 C 16.492188 18.773438 16.355469 18.636719 16.21875 18.496094 C 16.078125 18.355469 15.933594 18.210938 15.789062 18.066406 C 15.519531 17.796875 15.246094 17.523438 14.976562 17.25 C 14.667969 16.941406 14.359375 16.632812 14.050781 16.324219 C 13.417969 15.6875 12.78125 15.050781 12.148438 14.414062 C 12.003906 14.460938 11.882812 14.507812 11.753906 14.589844 C 11.207031 14.925781 10.613281 15.175781 10 15.351562 C 9.960938 15.363281 9.960938 15.363281 9.921875 15.375 C 9.742188 15.425781 9.558594 15.46875 9.375 15.507812 C 9.347656 15.515625 9.320312 15.519531 9.292969 15.527344 C 8.335938 15.722656 7.203125 15.722656 6.25 15.507812 C 6.21875 15.5 6.1875 15.496094 6.15625 15.488281 C 5.132812 15.269531 4.125 14.84375 3.28125 14.21875 C 3.242188 14.191406 3.203125 14.164062 3.164062 14.132812 C 1.648438 13.011719 0.609375 11.402344 0.164062 9.578125 C 0.15625 9.546875 0.148438 9.515625 0.140625 9.484375 C 0.015625 8.929688 -0.015625 8.386719 -0.0117188 7.824219 C -0.0117188 7.789062 -0.0117188 7.753906 -0.0117188 7.71875 C -0.0117188 7.222656 0.00390625 6.738281 0.117188 6.25 C 0.125 6.21875 0.128906 6.1875 0.136719 6.15625 C 0.355469 5.132812 0.78125 4.125 1.40625 3.28125 C 1.433594 3.242188 1.460938 3.203125 1.492188 3.164062 C 2.613281 1.648438 4.222656 0.609375 6.046875 0.164062 C 6.078125 0.15625 6.109375 0.148438 6.140625 0.140625 C 6.695312 0.015625 7.238281 -0.015625 7.800781 -0.0117188 Z M 6.296875 0.957031 C 6.21875 0.976562 6.140625 0.992188 6.0625 1.007812 C 4.292969 1.414062 2.796875 2.636719 1.835938 4.140625 C 1.820312 4.164062 1.804688 4.1875 1.789062 4.214844 C 1.34375 4.925781 1.050781 5.738281 0.898438 6.5625 C 0.890625 6.597656 0.882812 6.636719 0.875 6.671875 C 0.8125 7.046875 0.804688 7.414062 0.804688 7.789062 C 0.804688 7.824219 0.804688 7.855469 0.804688 7.890625 C 0.808594 8.382812 0.835938 8.851562 0.957031 9.328125 C 0.976562 9.40625 0.992188 9.484375 1.007812 9.5625 C 1.414062 11.332031 2.636719 12.828125 4.140625 13.789062 C 4.164062 13.804688 4.1875 13.820312 4.214844 13.835938 C 4.925781 14.28125 5.738281 14.574219 6.5625 14.726562 C 6.617188 14.738281 6.617188 14.738281 6.675781 14.75 C 7.039062 14.8125 7.398438 14.820312 7.765625 14.820312 C 7.8125 14.820312 7.8125 14.820312 7.863281 14.820312 C 8.40625 14.816406 8.925781 14.773438 9.453125 14.648438 C 9.484375 14.640625 9.511719 14.632812 9.542969 14.628906 C 11.296875 14.207031 12.855469 13.003906 13.800781 11.480469 C 14.21875 10.78125 14.503906 10.050781 14.6875 9.257812 C 14.695312 9.230469 14.703125 9.199219 14.707031 9.171875 C 14.921875 8.273438 14.890625 7.1875 14.667969 6.296875 C 14.648438 6.21875 14.632812 6.140625 14.617188 6.0625 C 14.210938 4.292969 12.988281 2.796875 11.484375 1.835938 C 11.460938 1.820312 11.4375 1.804688 11.410156 1.789062 C 10.699219 1.34375 9.886719 1.050781 9.0625 0.898438 C 9.027344 0.890625 8.988281 0.882812 8.953125 0.875 C 8.578125 0.8125 8.210938 0.804688 7.835938 0.804688 C 7.800781 0.804688 7.769531 0.804688 7.734375 0.804688 C 7.242188 0.808594 6.773438 0.835938 6.296875 0.957031 Z M 13.769531 12.867188 C 13.746094 12.894531 13.722656 12.917969 13.699219 12.945312 C 13.671875 12.972656 13.644531 13 13.617188 13.03125 C 13.578125 13.078125 13.578125 13.078125 13.535156 13.121094 C 13.304688 13.371094 13.074219 13.609375 12.8125 13.828125 C 12.875 13.984375 12.984375 14.089844 13.101562 14.203125 C 13.125 14.226562 13.144531 14.246094 13.167969 14.265625 C 13.230469 14.332031 13.296875 14.398438 13.363281 14.460938 C 13.410156 14.507812 13.453125 14.550781 13.5 14.597656 C 13.609375 14.703125 13.71875 14.8125 13.828125 14.921875 C 13.945312 14.867188 14.023438 14.8125 14.113281 14.71875 C 14.203125 14.625 14.292969 14.539062 14.394531 14.457031 C 14.523438 14.347656 14.632812 14.226562 14.742188 14.09375 C 14.800781 14.027344 14.859375 13.96875 14.921875 13.90625 C 14.859375 13.75 14.75 13.644531 14.632812 13.53125 C 14.613281 13.507812 14.59375 13.488281 14.570312 13.46875 C 14.527344 13.425781 14.484375 13.378906 14.441406 13.335938 C 14.375 13.269531 14.308594 13.203125 14.242188 13.136719 C 14.199219 13.097656 14.160156 13.054688 14.117188 13.011719 C 14.097656 12.992188 14.078125 12.972656 14.054688 12.953125 C 13.925781 12.800781 13.925781 12.800781 13.769531 12.867188 Z M 15.445312 14.511719 C 15.316406 14.640625 15.1875 14.773438 15.070312 14.914062 C 14.882812 15.132812 14.664062 15.316406 14.453125 15.507812 C 14.628906 15.71875 14.8125 15.914062 15.007812 16.109375 C 15.039062 16.140625 15.070312 16.171875 15.101562 16.203125 C 15.203125 16.304688 15.308594 16.410156 15.410156 16.511719 C 15.480469 16.582031 15.554688 16.65625 15.625 16.726562 C 15.757812 16.859375 15.886719 16.988281 16.019531 17.121094 C 16.210938 17.3125 16.402344 17.507812 16.59375 17.699219 C 16.761719 17.867188 16.929688 18.035156 17.09375 18.203125 C 17.167969 18.273438 17.238281 18.34375 17.308594 18.414062 C 17.40625 18.515625 17.503906 18.613281 17.605469 18.710938 C 17.632812 18.742188 17.664062 18.769531 17.691406 18.800781 C 17.90625 19.015625 18.113281 19.203125 18.433594 19.203125 C 18.714844 19.195312 18.890625 19.085938 19.078125 18.886719 C 19.199219 18.714844 19.199219 18.53125 19.207031 18.332031 C 19.132812 17.992188 18.847656 17.734375 18.605469 17.5 C 18.574219 17.464844 18.542969 17.433594 18.507812 17.398438 C 18.417969 17.308594 18.328125 17.21875 18.238281 17.128906 C 18.140625 17.035156 18.046875 16.941406 17.953125 16.847656 C 17.792969 16.6875 17.636719 16.53125 17.476562 16.375 C 17.273438 16.171875 17.070312 15.96875 16.867188 15.765625 C 16.691406 15.589844 16.515625 15.414062 16.34375 15.238281 C 16.285156 15.183594 16.230469 15.128906 16.171875 15.070312 C 16.070312 14.96875 15.964844 14.863281 15.859375 14.757812 C 15.828125 14.726562 15.796875 14.695312 15.765625 14.664062 C 15.738281 14.636719 15.707031 14.609375 15.679688 14.578125 C 15.652344 14.554688 15.628906 14.53125 15.605469 14.503906 C 15.523438 14.433594 15.527344 14.4375 15.445312 14.511719 Z M 15.445312 14.511719 "/>
<path style=" stroke:none;fill-rule:nonzero;fill:rgb(0%,0%,0%);fill-opacity:1;" d="M 7.710938 1.550781 C 7.800781 1.550781 7.890625 1.550781 7.980469 1.546875 C 8.507812 1.546875 9.019531 1.621094 9.527344 1.765625 C 9.570312 1.777344 9.570312 1.777344 9.613281 1.789062 C 11.160156 2.246094 12.503906 3.3125 13.292969 4.71875 C 13.796875 5.648438 14.078125 6.652344 14.074219 7.710938 C 14.074219 7.800781 14.074219 7.890625 14.078125 7.980469 C 14.078125 8.507812 14.003906 9.019531 13.859375 9.527344 C 13.847656 9.570312 13.847656 9.570312 13.835938 9.613281 C 13.378906 11.160156 12.3125 12.503906 10.90625 13.292969 C 9.976562 13.796875 8.972656 14.078125 7.914062 14.074219 C 7.824219 14.074219 7.734375 14.074219 7.644531 14.078125 C 7.117188 14.078125 6.605469 14.003906 6.097656 13.859375 C 6.054688 13.847656 6.054688 13.847656 6.011719 13.835938 C 4.464844 13.378906 3.121094 12.3125 2.332031 10.90625 C 1.828125 9.976562 1.546875 8.972656 1.550781 7.914062 C 1.550781 7.824219 1.550781 7.734375 1.546875 7.644531 C 1.546875 7.117188 1.621094 6.605469 1.765625 6.097656 C 1.773438 6.070312 1.78125 6.042969 1.789062 6.011719 C 2.246094 4.464844 3.3125 3.121094 4.71875 2.332031 C 5.648438 1.828125 6.652344 1.546875 7.710938 1.550781 Z M 6.40625 2.539062 C 6.363281 2.550781 6.363281 2.550781 6.320312 2.5625 C 4.921875 2.945312 3.777344 3.898438 3.058594 5.140625 C 2.832031 5.546875 2.660156 5.957031 2.539062 6.40625 C 2.527344 6.449219 2.527344 6.449219 2.515625 6.492188 C 2.277344 7.355469 2.296875 8.363281 2.539062 9.21875 C 2.546875 9.246094 2.554688 9.277344 2.5625 9.304688 C 2.945312 10.703125 3.898438 11.847656 5.140625 12.566406 C 5.546875 12.792969 5.957031 12.964844 6.40625 13.085938 C 6.433594 13.09375 6.464844 13.101562 6.492188 13.109375 C 7.355469 13.347656 8.363281 13.328125 9.21875 13.085938 C 9.261719 13.074219 9.261719 13.074219 9.304688 13.0625 C 10.703125 12.679688 11.847656 11.726562 12.566406 10.484375 C 12.792969 10.078125 12.964844 9.667969 13.085938 9.21875 C 13.09375 9.191406 13.101562 9.160156 13.109375 9.132812 C 13.347656 8.269531 13.328125 7.261719 13.085938 6.40625 C 13.074219 6.363281 13.074219 6.363281 13.0625 6.320312 C 12.679688 4.921875 11.726562 3.777344 10.484375 3.058594 C 10.078125 2.832031 9.667969 2.660156 9.21875 2.539062 C 9.175781 2.527344 9.175781 2.527344 9.132812 2.515625 C 8.269531 2.277344 7.261719 2.296875 6.40625 2.539062 Z M 6.40625 2.539062 "/>
<path style=" stroke:none;fill-rule:nonzero;fill:rgb(0%,0%,0%);fill-opacity:1;" d="M 7.980469 3.105469 C 8.015625 3.105469 8.050781 3.105469 8.085938 3.109375 C 9.363281 3.148438 10.5 3.769531 11.363281 4.691406 C 11.746094 5.113281 12.175781 5.703125 12.242188 6.28125 C 12.226562 6.417969 12.191406 6.492188 12.109375 6.601562 C 11.988281 6.683594 11.910156 6.691406 11.765625 6.703125 C 11.628906 6.667969 11.539062 6.585938 11.445312 6.484375 C 11.386719 6.382812 11.339844 6.277344 11.296875 6.167969 C 11.160156 5.859375 11 5.613281 10.78125 5.351562 C 10.753906 5.316406 10.726562 5.285156 10.699219 5.25 C 10.066406 4.503906 9.109375 4.050781 8.144531 3.96875 C 8.097656 3.964844 8.097656 3.964844 8.050781 3.960938 C 7.988281 3.957031 7.925781 3.949219 7.863281 3.945312 C 7.703125 3.933594 7.632812 3.917969 7.5 3.816406 C 7.417969 3.703125 7.394531 3.65625 7.398438 3.515625 C 7.398438 3.484375 7.394531 3.453125 7.394531 3.417969 C 7.476562 3.109375 7.707031 3.09375 7.980469 3.105469 Z M 7.980469 3.105469 "/>
<path style=" stroke:none;fill-rule:nonzero;fill:rgb(0%,0%,0%);fill-opacity:1;" d="M 12.304688 7.421875 C 12.425781 7.496094 12.425781 7.496094 12.5 7.617188 C 12.539062 7.8125 12.53125 7.957031 12.425781 8.128906 C 12.253906 8.234375 12.109375 8.242188 11.914062 8.203125 C 11.792969 8.128906 11.792969 8.128906 11.71875 8.007812 C 11.679688 7.8125 11.6875 7.667969 11.792969 7.496094 C 11.964844 7.390625 12.109375 7.382812 12.304688 7.421875 Z M 12.304688 7.421875 "/>
</g>
</svg>
