<svg xmlns="http://www.w3.org/2000/svg" viewBox="0 0 1200 1200" fill="currentColor">
  <path d="M832.486,46.17c-48.316,0.497-97.873,9.932-146.357,29.285l-2.201,0.934
    l-2.201,1.134c-30.735,15.652-58.748,35.232-83.651,58.436
    c-134.023-115.917-347.394-124.33-493.37,7.271l-1.468,1.334l-1.334,1.401
    C-26.152,279.721-23.153,485.712,53.607,648.474l0.667,1.268l0.667,1.334
    c90.404,167.407,259.216,309.652,413.054,426.596l0.4,0.333
    l0.333,0.268c9.897,7.256,26.915,22.257,46.562,37.022
    c19.646,14.766,41.839,30.948,74.312,37.156l7.271,1.4l7.338-0.601
    c34.082-2.939,47.452-15.523,69.843-29.617
    c22.391-14.095,47.177-31.986,72.645-51.565
    c50.202-38.595,102.147-83.079,136.351-114.804
    c72.052-61.482,143.423-132.361,203.926-215.732
    c95.955-129.193,142.502-303.295,86.987-474.825
    C1111.497,123.881,977.435,44.681,832.486,46.17z
    M834.221,151.702c104.434-2.402,195.973,53.518,241.415,149.158
    c41.99,133.897,5.693,270.32-72.512,375.364
    c-54.48,75.18-120.459,140.988-188.85,199.189
    c-30.797,28.667-82.925,73.323-130.547,109.935
    c-23.812,18.306-46.64,34.665-64.373,45.828
    c-6.668,4.197-13.008,7.059-18.212,9.272
    c-5.469-2.988-12.41-7.196-19.611-12.607
    c-14.5-10.897-29.94-24.809-46.763-37.224
    c-149.294-113.553-306.55-251.435-382.169-390.44
    C88.275,470.559,90.954,313.58,177.683,221.344
    c117.926-104.852,293.123-82.057,380.5,25.549l42.56,52.366l41.159-53.433
    c23.682-30.723,51.943-54.21,86.253-72.044
    C764.118,159.733,799.849,152.492,834.221,151.702z"/>
</svg>